<?xml version="1.0" encoding="UTF-8"?>
<svg width="250px" height="250px" viewBox="0 0 250 250" version="1.1" xmlns="http://www.w3.org/2000/svg" xmlns:xlink="http://www.w3.org/1999/xlink">
    <!-- Generator: Sketch 58 (84663) - https://sketch.com -->
    <title>hamburg menu</title>
    <desc>Created with Sketch.</desc>
    <g id="hamburg-menu" stroke="none" stroke-width="1" fill="none" fill-rule="evenodd">
        <g id="hamburg" transform="translate(7.000000, 0.000000)">
            <rect id="Rectangle" fill="#E7CB9F" x="2" y="51.6054015" width="234" height="32" rx="16"></rect>
            <rect id="Rectangle-Copy-4" fill="#E7CB9F" x="2" y="197.605401" width="234" height="32" rx="16"></rect>
            <rect id="Rectangle-Copy-2" fill="#5A2210" x="2" y="148.605401" width="234" height="32" rx="16"></rect>
            <rect id="Rectangle" fill="#A2C488" x="2" y="100.605401" width="234" height="11" rx="5.5"></rect>
            <rect id="Rectangle-Copy" fill="#FFECAA" x="2" y="116.605401" width="234" height="11" rx="5.5"></rect>
            <rect id="Rectangle-Copy-3" fill="#FF8989" x="2" y="132.605401" width="234" height="11" rx="5.5"></rect>
            <path d="M2,67.6054015 C4.32182331,36.9387348 43.3218233,21.6054015 119,21.6054015 C194.678177,21.6054015 233.678177,36.9387348 236,67.6054015 L2,67.6054015 Z" id="Path-14" fill="#E7CB9F"></path>
            <path d="M83.8573992,37.3159507 C81.3673984,41.0739467 80.5373981,43.3750402 81.3673984,44.2192314 C82.6123988,45.485518 84.9961263,45.8652545 85.8569993,44.2192314 C86.4309146,43.1218826 85.7643813,40.820789 83.8573992,37.3159507 Z" id="Path-12" fill="#FFF6E7" transform="translate(83.556148, 41.315951) rotate(73.000000) translate(-83.556148, -41.315951) "></path>
            <path d="M99.8573992,43.3159507 C97.3673984,47.0739467 96.5373981,49.3750402 97.3673984,50.2192314 C98.6123988,51.485518 100.996126,51.8652545 101.856999,50.2192314 C102.430915,49.1218826 101.764381,46.820789 99.8573992,43.3159507 Z" id="Path-12" fill="#FFF6E7" transform="translate(99.556148, 47.315951) rotate(16.000000) translate(-99.556148, -47.315951) "></path>
            <path d="M115.857399,30.3159507 C113.367398,34.0739467 112.537398,36.3750402 113.367398,37.2192314 C114.612399,38.485518 116.996126,38.8652545 117.856999,37.2192314 C118.430915,36.1218826 117.764381,33.820789 115.857399,30.3159507 Z" id="Path-12" fill="#FFF6E7" transform="translate(115.556148, 34.315951) rotate(-145.000000) translate(-115.556148, -34.315951) "></path>
            <path d="M132.857399,31.3159507 C130.367398,35.0739467 129.537398,37.3750402 130.367398,38.2192314 C131.612399,39.485518 133.996126,39.8652545 134.856999,38.2192314 C135.430915,37.1218826 134.764381,34.820789 132.857399,31.3159507 Z" id="Path-12" fill="#FFF6E7" transform="translate(132.556148, 35.315951) rotate(-52.000000) translate(-132.556148, -35.315951) "></path>
            <path d="M153.857399,38.3159507 C151.367398,42.0739467 150.537398,44.3750402 151.367398,45.2192314 C152.612399,46.485518 154.996126,46.8652545 155.856999,45.2192314 C156.430915,44.1218826 155.764381,41.820789 153.857399,38.3159507 Z" id="Path-12" fill="#FFF6E7" transform="translate(153.556148, 42.315951) rotate(-115.000000) translate(-153.556148, -42.315951) "></path>
        </g>
    </g>
</svg>